P2
4 120
255
0 0 0 0 0 0 0 0 0 0 0 0 0 0 0 0 0 0 0 0 0 0 0 0 0 0 0 0 0 0 0 0 0 0 0 0 0 0 0 0 0 0 0 0 0 0 0 0 0 0 0 0 0 0 0 0 0 0 0 0 0 0 0 0 0 0 0 0 0 0 0 0 0 0 0 0 0 0 0 0 0 0 0 0 0 0 0 0 0 0 0 0 0 0 0 0 0 0 0 0 0 0 0 0 0 0 0 0 0 0 0 0 0 0 0 0 0 0 0 0 0 255 255 0 0 246 246 0 0 238 238 0 0 229 229 0 0 221 221 0 0 212 212 0 0 204 204 0 0 195 195 0 0 187 187 0 0 178 178 0 0 170 170 0 0 161 161 0 0 153 153 0 0 144 144 0 0 136 136 0 0 127 127 0 0 119 119 0 0 110 110 0 0 102 102 0 0 93 93 0 0 85 85 0 0 76 76 0 0 68 68 0 0 59 59 0 0 51 51 0 0 42 42 0 0 34 34 0 0 25 25 0 0 17 17 0 0 8 8 0 0 8 8 0 0 8 8 0 0 17 17 0 0 25 25 0 0 34 34 0 0 42 42 0 0 51 51 0 0 59 59 0 0 68 68 0 0 76 76 0 0 85 85 0 0 93 93 0 0 102 102 0 0 110 110 0 0 119 119 0 0 127 127 0 0 136 136 0 0 144 144 0 0 153 153 0 0 161 161 0 0 170 170 0 0 178 178 0 0 187 187 0 0 195 195 0 0 204 204 0 0 212 212 0 0 221 221 0 0 229 229 0 0 238 238 0 0 246 246 0 0 255 255 0 0 0 0 0 0 0 0 0 0 0 0 0 0 0 0 0 0 0 0 0 0 0 0 0 0 0 0 0 0 0 0 0 0 0 0 0 0 0 0 0 0 0 0 0 0 0 0 0 0 0 0 0 0 0 0 0 0 0 0 0 0 0 0 0 0 0 0 0 0 0 0 0 0 0 0 0 0 0 0 0 0 0 0 0 0 0 0 0 0 0 0 0 0 0 0 0 0 0 0 0 0 0 0 0 0 0 0 0 0 0 0 0 0 0 0 0 